<svg xmlns="http://www.w3.org/2000/svg" viewBox="0 0 174.12 3.01"><defs><style>.cls-1{isolation:isolate;}.cls-2,.cls-3,.cls-4{fill:none;}.cls-2{mix-blend-mode:soft-light;}.cls-4{mix-blend-mode:multiply;}</style></defs><title>note2</title><g class="cls-1"><g id="Layer_1" data-name="Layer 1"><ellipse class="cls-2" cx="1.36" cy="1.37" rx="1.36" ry="1.35"/><path class="cls-3" d="M4.57,2.48A1.26,1.26,0,1,1,3.31,1.23,1.25,1.25,0,0,1,4.57,2.48Z" transform="translate(-2.05 -1.23)"/><path class="cls-4" d="M2.11,2.59A1.25,1.25,0,0,1,4.48,2a1.26,1.26,0,0,0-2.43.46,1.28,1.28,0,0,0,.15.58A1.23,1.23,0,0,1,2.11,2.59Z" transform="translate(-2.05 -1.23)"/><path class="cls-2" d="M10.48,2.6A1.36,1.36,0,1,1,9.12,1.25,1.35,1.35,0,0,1,10.48,2.6Z" transform="translate(-2.05 -1.23)"/><path class="cls-3" d="M10.28,2.49A1.26,1.26,0,1,1,9,1.24,1.25,1.25,0,0,1,10.28,2.49Z" transform="translate(-2.05 -1.23)"/><path class="cls-4" d="M7.82,2.6A1.26,1.26,0,0,1,9.08,1.34,1.24,1.24,0,0,1,10.19,2,1.23,1.23,0,0,0,9,1.24,1.25,1.25,0,0,0,7.77,2.49a1.27,1.27,0,0,0,.14.58A1.45,1.45,0,0,1,7.82,2.6Z" transform="translate(-2.05 -1.23)"/><ellipse class="cls-2" cx="12.78" cy="1.39" rx="1.36" ry="1.35"/><path class="cls-3" d="M16,2.5a1.26,1.26,0,1,1-1.26-1.26A1.26,1.26,0,0,1,16,2.5Z" transform="translate(-2.05 -1.23)"/><path class="cls-4" d="M13.53,2.61A1.26,1.26,0,0,1,15.91,2a1.26,1.26,0,0,0-2.43.46,1.28,1.28,0,0,0,.15.58A1.24,1.24,0,0,1,13.53,2.61Z" transform="translate(-2.05 -1.23)"/><ellipse class="cls-2" cx="18.5" cy="1.4" rx="1.36" ry="1.35"/><path class="cls-3" d="M21.71,2.51a1.26,1.26,0,1,1-1.26-1.26A1.25,1.25,0,0,1,21.71,2.51Z" transform="translate(-2.05 -1.23)"/><path class="cls-4" d="M19.25,2.62a1.25,1.25,0,0,1,2.37-.57,1.25,1.25,0,1,0-2.28,1A1.23,1.23,0,0,1,19.25,2.62Z" transform="translate(-2.05 -1.23)"/><ellipse class="cls-2" cx="24.21" cy="1.41" rx="1.36" ry="1.35"/><circle class="cls-3" cx="24.11" cy="1.3" r="1.26"/><path class="cls-4" d="M25,2.63a1.27,1.27,0,0,1,1.26-1.26,1.24,1.24,0,0,1,1.11.69,1.24,1.24,0,0,0-1.16-.8A1.26,1.26,0,0,0,25.05,3.1,1.45,1.45,0,0,1,25,2.63Z" transform="translate(-2.05 -1.23)"/><path class="cls-2" d="M33.34,2.64A1.36,1.36,0,1,1,32,1.29,1.36,1.36,0,0,1,33.34,2.64Z" transform="translate(-2.05 -1.23)"/><path class="cls-3" d="M33.14,2.53a1.26,1.26,0,0,1-2.52,0,1.26,1.26,0,0,1,2.52,0Z" transform="translate(-2.05 -1.23)"/><path class="cls-4" d="M30.68,2.64a1.25,1.25,0,0,1,2.37-.57,1.26,1.26,0,0,0-2.43.46,1.28,1.28,0,0,0,.15.58A1.23,1.23,0,0,1,30.68,2.64Z" transform="translate(-2.05 -1.23)"/><path class="cls-2" d="M39.05,2.65A1.36,1.36,0,1,1,37.69,1.3,1.36,1.36,0,0,1,39.05,2.65Z" transform="translate(-2.05 -1.23)"/><circle class="cls-3" cx="35.54" cy="1.32" r="1.26"/><path class="cls-4" d="M36.39,2.65a1.25,1.25,0,0,1,2.37-.57,1.25,1.25,0,0,0-2.42.46,1.27,1.27,0,0,0,.14.58A1.23,1.23,0,0,1,36.39,2.65Z" transform="translate(-2.05 -1.23)"/><ellipse class="cls-2" cx="41.35" cy="1.44" rx="1.36" ry="1.35"/><path class="cls-3" d="M44.57,2.55a1.26,1.26,0,1,1-1.26-1.26A1.26,1.26,0,0,1,44.57,2.55Z" transform="translate(-2.05 -1.23)"/><path class="cls-4" d="M42.1,2.66A1.27,1.27,0,0,1,43.36,1.4a1.24,1.24,0,0,1,1.11.69,1.24,1.24,0,0,0-1.16-.8,1.26,1.26,0,0,0-1.26,1.26,1.41,1.41,0,0,0,.14.58A1.45,1.45,0,0,1,42.1,2.66Z" transform="translate(-2.05 -1.23)"/><path class="cls-2" d="M50.48,2.67a1.36,1.36,0,1,1-1.36-1.35A1.36,1.36,0,0,1,50.48,2.67Z" transform="translate(-2.05 -1.23)"/><path class="cls-3" d="M50.28,2.56a1.26,1.26,0,0,1-2.52,0,1.26,1.26,0,0,1,2.52,0Z" transform="translate(-2.05 -1.23)"/><path class="cls-4" d="M47.82,2.67a1.25,1.25,0,0,1,2.37-.57,1.26,1.26,0,0,0-2.43.46,1.28,1.28,0,0,0,.15.58A1.23,1.23,0,0,1,47.82,2.67Z" transform="translate(-2.05 -1.23)"/><ellipse class="cls-2" cx="52.78" cy="1.45" rx="1.36" ry="1.35"/><circle class="cls-3" cx="52.68" cy="1.35" r="1.26"/><path class="cls-4" d="M53.53,2.68a1.25,1.25,0,0,1,2.37-.57,1.25,1.25,0,0,0-2.42.46,1.27,1.27,0,0,0,.14.58A1.27,1.27,0,0,1,53.53,2.68Z" transform="translate(-2.05 -1.23)"/><path class="cls-2" d="M61.9,2.69a1.36,1.36,0,1,1-1.35-1.35A1.35,1.35,0,0,1,61.9,2.69Z" transform="translate(-2.05 -1.23)"/><path class="cls-3" d="M61.71,2.58a1.26,1.26,0,1,1-1.26-1.26A1.26,1.26,0,0,1,61.71,2.58Z" transform="translate(-2.05 -1.23)"/><path class="cls-4" d="M59.24,2.69a1.26,1.26,0,0,1,2.38-.57,1.26,1.26,0,0,0-2.43.46,1.28,1.28,0,0,0,.15.58A1.28,1.28,0,0,1,59.24,2.69Z" transform="translate(-2.05 -1.23)"/><path class="cls-2" d="M67.62,2.7a1.36,1.36,0,1,1-1.36-1.35A1.36,1.36,0,0,1,67.62,2.7Z" transform="translate(-2.05 -1.23)"/><path class="cls-3" d="M67.42,2.59a1.26,1.26,0,1,1-2.52,0,1.26,1.26,0,0,1,2.52,0Z" transform="translate(-2.05 -1.23)"/><path class="cls-4" d="M65,2.7a1.25,1.25,0,0,1,2.37-.57,1.26,1.26,0,0,0-2.43.46,1.28,1.28,0,0,0,.15.58A1.27,1.27,0,0,1,65,2.7Z" transform="translate(-2.05 -1.23)"/><path class="cls-2" d="M73.33,2.71A1.36,1.36,0,1,1,72,1.36,1.36,1.36,0,0,1,73.33,2.71Z" transform="translate(-2.05 -1.23)"/><path class="cls-3" d="M73.13,2.6a1.26,1.26,0,1,1-1.25-1.26A1.25,1.25,0,0,1,73.13,2.6Z" transform="translate(-2.05 -1.23)"/><path class="cls-4" d="M70.67,2.71a1.26,1.26,0,0,1,1.26-1.26A1.24,1.24,0,0,1,73,2.14a1.24,1.24,0,0,0-1.16-.8,1.26,1.26,0,0,0-1.12,1.84A1.51,1.51,0,0,1,70.67,2.71Z" transform="translate(-2.05 -1.23)"/><ellipse class="cls-2" cx="75.63" cy="1.49" rx="1.36" ry="1.35"/><path class="cls-3" d="M78.85,2.61a1.26,1.26,0,1,1-1.26-1.26A1.27,1.27,0,0,1,78.85,2.61Z" transform="translate(-2.05 -1.23)"/><path class="cls-4" d="M76.39,2.72a1.25,1.25,0,0,1,2.37-.57,1.26,1.26,0,0,0-2.43.46,1.21,1.21,0,0,0,.15.57A1.18,1.18,0,0,1,76.39,2.72Z" transform="translate(-2.05 -1.23)"/><path class="cls-2" d="M84.76,2.73A1.36,1.36,0,1,1,83.4,1.38,1.36,1.36,0,0,1,84.76,2.73Z" transform="translate(-2.05 -1.23)"/><path class="cls-3" d="M84.56,2.62A1.26,1.26,0,1,1,83.3,1.36,1.26,1.26,0,0,1,84.56,2.62Z" transform="translate(-2.05 -1.23)"/><path class="cls-4" d="M82.1,2.73a1.25,1.25,0,0,1,2.37-.58,1.25,1.25,0,0,0-2.42.47,1.2,1.2,0,0,0,.14.57A1.18,1.18,0,0,1,82.1,2.73Z" transform="translate(-2.05 -1.23)"/><path class="cls-2" d="M90.47,2.74a1.36,1.36,0,1,1-1.35-1.35A1.35,1.35,0,0,1,90.47,2.74Z" transform="translate(-2.05 -1.23)"/><circle class="cls-3" cx="86.96" cy="1.4" r="1.26"/><path class="cls-4" d="M87.81,2.74a1.25,1.25,0,0,1,2.37-.58A1.25,1.25,0,0,0,89,1.37a1.26,1.26,0,0,0-1.26,1.26,1.2,1.2,0,0,0,.14.57A1.39,1.39,0,0,1,87.81,2.74Z" transform="translate(-2.05 -1.23)"/><ellipse class="cls-2" cx="92.78" cy="1.52" rx="1.36" ry="1.35"/><path class="cls-3" d="M96,2.64a1.26,1.26,0,1,1-1.26-1.26A1.26,1.26,0,0,1,96,2.64Z" transform="translate(-2.05 -1.23)"/><path class="cls-4" d="M93.53,2.75a1.25,1.25,0,0,1,1.25-1.26,1.27,1.27,0,0,1,1.12.68,1.26,1.26,0,0,0-2.43.47,1.21,1.21,0,0,0,.15.57A1.18,1.18,0,0,1,93.53,2.75Z" transform="translate(-2.05 -1.23)"/><path class="cls-2" d="M101.9,2.76a1.36,1.36,0,0,1-2.71,0,1.36,1.36,0,0,1,2.71,0Z" transform="translate(-2.05 -1.23)"/><path class="cls-3" d="M101.7,2.65a1.26,1.26,0,1,1-1.26-1.26A1.26,1.26,0,0,1,101.7,2.65Z" transform="translate(-2.05 -1.23)"/><path class="cls-4" d="M99.24,2.76a1.25,1.25,0,0,1,2.37-.58,1.25,1.25,0,0,0-2.42.47,1.2,1.2,0,0,0,.14.57A1.18,1.18,0,0,1,99.24,2.76Z" transform="translate(-2.05 -1.23)"/><ellipse class="cls-2" cx="104.2" cy="1.54" rx="1.36" ry="1.35"/><path class="cls-3" d="M107.42,2.66a1.26,1.26,0,1,1-1.26-1.26A1.27,1.27,0,0,1,107.42,2.66Z" transform="translate(-2.05 -1.23)"/><path class="cls-4" d="M105,2.77a1.26,1.26,0,0,1,1.26-1.26,1.24,1.24,0,0,1,1.11.68,1.25,1.25,0,0,0-1.16-.79,1.26,1.26,0,0,0-1.26,1.26,1.33,1.33,0,0,0,.14.57A1.39,1.39,0,0,1,105,2.77Z" transform="translate(-2.05 -1.23)"/><path class="cls-2" d="M113.33,2.78A1.36,1.36,0,1,1,112,1.43,1.36,1.36,0,0,1,113.33,2.78Z" transform="translate(-2.05 -1.23)"/><path class="cls-3" d="M113.13,2.67a1.26,1.26,0,1,1-1.26-1.26A1.26,1.26,0,0,1,113.13,2.67Z" transform="translate(-2.05 -1.23)"/><path class="cls-4" d="M110.67,2.78A1.25,1.25,0,0,1,113,2.2a1.26,1.26,0,0,0-2.43.47,1.21,1.21,0,0,0,.15.57A1.18,1.18,0,0,1,110.67,2.78Z" transform="translate(-2.05 -1.23)"/><ellipse class="cls-2" cx="115.63" cy="1.56" rx="1.36" ry="1.35"/><path class="cls-3" d="M118.84,2.68a1.26,1.26,0,1,1-1.25-1.26A1.26,1.26,0,0,1,118.84,2.68Z" transform="translate(-2.05 -1.23)"/><path class="cls-4" d="M116.38,2.79a1.25,1.25,0,0,1,2.37-.58,1.25,1.25,0,0,0-2.42.47,1.2,1.2,0,0,0,.14.57A1.18,1.18,0,0,1,116.38,2.79Z" transform="translate(-2.05 -1.23)"/><ellipse class="cls-2" cx="121.34" cy="1.57" rx="1.36" ry="1.35"/><path class="cls-3" d="M124.56,2.69a1.26,1.26,0,1,1-2.52,0,1.26,1.26,0,1,1,2.52,0Z" transform="translate(-2.05 -1.23)"/><path class="cls-4" d="M122.09,2.8a1.26,1.26,0,0,1,2.38-.58,1.27,1.27,0,0,0-1.17-.79A1.25,1.25,0,0,0,122,2.69a1.21,1.21,0,0,0,.15.57A1.19,1.19,0,0,1,122.09,2.8Z" transform="translate(-2.05 -1.23)"/><path class="cls-2" d="M130.47,2.81a1.36,1.36,0,1,1-1.36-1.35A1.35,1.35,0,0,1,130.47,2.81Z" transform="translate(-2.05 -1.23)"/><path class="cls-3" d="M130.27,2.7A1.26,1.26,0,1,1,129,1.44,1.26,1.26,0,0,1,130.27,2.7Z" transform="translate(-2.05 -1.23)"/><path class="cls-4" d="M127.81,2.81a1.25,1.25,0,0,1,2.37-.58,1.26,1.26,0,0,0-2.43.47,1.21,1.21,0,0,0,.15.57A1.18,1.18,0,0,1,127.81,2.81Z" transform="translate(-2.05 -1.23)"/><ellipse class="cls-2" cx="132.77" cy="1.59" rx="1.36" ry="1.35"/><path class="cls-3" d="M136,2.71a1.26,1.26,0,1,1-1.25-1.26A1.26,1.26,0,0,1,136,2.71Z" transform="translate(-2.05 -1.23)"/><path class="cls-4" d="M133.52,2.82a1.25,1.25,0,0,1,2.37-.58,1.25,1.25,0,0,0-2.42.47,1.2,1.2,0,0,0,.14.57A1.39,1.39,0,0,1,133.52,2.82Z" transform="translate(-2.05 -1.23)"/><path class="cls-2" d="M141.9,2.83a1.36,1.36,0,1,1-1.36-1.35A1.35,1.35,0,0,1,141.9,2.83Z" transform="translate(-2.05 -1.23)"/><path class="cls-3" d="M141.7,2.72a1.26,1.26,0,1,1-1.26-1.26A1.27,1.27,0,0,1,141.7,2.72Z" transform="translate(-2.05 -1.23)"/><path class="cls-4" d="M139.24,2.83a1.25,1.25,0,0,1,1.25-1.26,1.27,1.27,0,0,1,1.12.68,1.26,1.26,0,0,0-2.43.47,1.21,1.21,0,0,0,.15.57A1.18,1.18,0,0,1,139.24,2.83Z" transform="translate(-2.05 -1.23)"/><ellipse class="cls-2" cx="144.2" cy="1.61" rx="1.36" ry="1.35"/><circle class="cls-3" cx="144.1" cy="1.5" r="1.26"/><path class="cls-4" d="M145,2.84a1.25,1.25,0,0,1,2.37-.58,1.27,1.27,0,0,0-1.17-.79,1.25,1.25,0,0,0-1.25,1.26,1.2,1.2,0,0,0,.14.57A1.18,1.18,0,0,1,145,2.84Z" transform="translate(-2.05 -1.23)"/><path class="cls-2" d="M153.32,2.85A1.36,1.36,0,1,1,152,1.5,1.34,1.34,0,0,1,153.32,2.85Z" transform="translate(-2.05 -1.23)"/><path class="cls-3" d="M153.13,2.74a1.26,1.26,0,1,1-2.52,0,1.26,1.26,0,0,1,2.52,0Z" transform="translate(-2.05 -1.23)"/><path class="cls-4" d="M150.66,2.85A1.25,1.25,0,0,1,153,2.27a1.25,1.25,0,0,0-2.42.47,1.2,1.2,0,0,0,.14.57A1.39,1.39,0,0,1,150.66,2.85Z" transform="translate(-2.05 -1.23)"/><path class="cls-2" d="M159,2.86a1.36,1.36,0,1,1-1.36-1.35A1.35,1.35,0,0,1,159,2.86Z" transform="translate(-2.05 -1.23)"/><path class="cls-3" d="M158.84,2.75a1.26,1.26,0,1,1-1.26-1.26A1.26,1.26,0,0,1,158.84,2.75Z" transform="translate(-2.05 -1.23)"/><path class="cls-4" d="M156.38,2.86a1.25,1.25,0,0,1,1.25-1.26,1.27,1.27,0,0,1,1.12.68,1.26,1.26,0,0,0-2.43.47,1.21,1.21,0,0,0,.15.57A1.18,1.18,0,0,1,156.38,2.86Z" transform="translate(-2.05 -1.23)"/><ellipse class="cls-2" cx="161.34" cy="1.64" rx="1.36" ry="1.35"/><path class="cls-3" d="M164.55,2.76a1.26,1.26,0,1,1-1.26-1.26A1.26,1.26,0,0,1,164.55,2.76Z" transform="translate(-2.05 -1.23)"/><path class="cls-4" d="M162.09,2.87a1.25,1.25,0,0,1,2.37-.58,1.25,1.25,0,0,0-2.42.47,1.2,1.2,0,0,0,.14.57A1.18,1.18,0,0,1,162.09,2.87Z" transform="translate(-2.05 -1.23)"/><ellipse class="cls-2" cx="167.05" cy="1.65" rx="1.36" ry="1.35"/><path class="cls-3" d="M170.27,2.77a1.26,1.26,0,1,1-2.52,0,1.26,1.26,0,1,1,2.52,0Z" transform="translate(-2.05 -1.23)"/><path class="cls-4" d="M167.8,2.88a1.26,1.26,0,0,1,1.26-1.26,1.24,1.24,0,0,1,1.11.68,1.25,1.25,0,0,0-2.42.47,1.21,1.21,0,0,0,.15.57A1.19,1.19,0,0,1,167.8,2.88Z" transform="translate(-2.05 -1.23)"/><ellipse class="cls-2" cx="172.77" cy="1.66" rx="1.36" ry="1.35"/><path class="cls-3" d="M176,2.78a1.26,1.26,0,1,1-1.26-1.26A1.25,1.25,0,0,1,176,2.78Z" transform="translate(-2.05 -1.23)"/><path class="cls-4" d="M173.52,2.89a1.25,1.25,0,0,1,2.37-.58,1.26,1.26,0,0,0-2.43.47,1.21,1.21,0,0,0,.15.57A1.18,1.18,0,0,1,173.52,2.89Z" transform="translate(-2.05 -1.23)"/></g></g></svg>