<svg id="Layer_1" data-name="Layer 1" xmlns="http://www.w3.org/2000/svg" viewBox="0 0 136.98 3.33"><defs><style>.cls-1{fill:#caad83;}</style></defs><title>note3</title><ellipse class="cls-1" cx="1.55" cy="1.56" rx="1.55" ry="1.54"/><path class="cls-1" d="M4.18,2.94a1.44,1.44,0,1,1-2.87,0,1.44,1.44,0,0,1,2.87,0Z" transform="translate(-1.31 -1.51)"/><path class="cls-1" d="M1.37,3.06a1.43,1.43,0,0,1,2.7-.65,1.43,1.43,0,0,0-2.76.53,1.46,1.46,0,0,0,.16.66A1.62,1.62,0,0,1,1.37,3.06Z" transform="translate(-1.31 -1.51)"/><path class="cls-1" d="M10.78,3.08A1.55,1.55,0,1,1,9.23,1.54,1.55,1.55,0,0,1,10.78,3.08Z" transform="translate(-1.31 -1.51)"/><path class="cls-1" d="M10.55,3A1.44,1.44,0,1,1,9.12,1.52,1.44,1.44,0,0,1,10.55,3Z" transform="translate(-1.31 -1.51)"/><path class="cls-1" d="M7.74,3.08a1.43,1.43,0,0,1,2.71-.66A1.44,1.44,0,0,0,7.68,3a1.35,1.35,0,0,0,.17.66A1.4,1.4,0,0,1,7.74,3.08Z" transform="translate(-1.31 -1.51)"/><ellipse class="cls-1" cx="14.3" cy="1.58" rx="1.55" ry="1.54"/><path class="cls-1" d="M16.93,3a1.44,1.44,0,1,1-1.44-1.43A1.44,1.44,0,0,1,16.93,3Z" transform="translate(-1.31 -1.51)"/><path class="cls-1" d="M14.12,3.09a1.43,1.43,0,0,1,2.7-.66A1.43,1.43,0,0,0,14.06,3a1.46,1.46,0,0,0,.16.66A1.56,1.56,0,0,1,14.12,3.09Z" transform="translate(-1.31 -1.51)"/><ellipse class="cls-1" cx="20.67" cy="1.59" rx="1.55" ry="1.54"/><path class="cls-1" d="M23.3,3a1.44,1.44,0,1,1-1.43-1.43A1.43,1.43,0,0,1,23.3,3Z" transform="translate(-1.31 -1.51)"/><path class="cls-1" d="M20.49,3.1a1.43,1.43,0,0,1,2.71-.66A1.44,1.44,0,0,0,20.43,3a1.35,1.35,0,0,0,.17.66A1.36,1.36,0,0,1,20.49,3.1Z" transform="translate(-1.31 -1.51)"/><ellipse class="cls-1" cx="27.05" cy="1.6" rx="1.55" ry="1.54"/><circle class="cls-1" cx="26.94" cy="1.48" r="1.43"/><path class="cls-1" d="M26.87,3.11a1.43,1.43,0,0,1,2.7-.66A1.43,1.43,0,0,0,26.81,3a1.45,1.45,0,0,0,.16.65A1.51,1.51,0,0,1,26.87,3.11Z" transform="translate(-1.31 -1.51)"/><path class="cls-1" d="M36.28,3.12a1.55,1.55,0,1,1-1.55-1.54A1.55,1.55,0,0,1,36.28,3.12Z" transform="translate(-1.31 -1.51)"/><path class="cls-1" d="M36.05,3a1.44,1.44,0,1,1-1.43-1.44A1.43,1.43,0,0,1,36.05,3Z" transform="translate(-1.31 -1.51)"/><path class="cls-1" d="M33.24,3.12a1.44,1.44,0,0,1,1.44-1.43A1.42,1.42,0,0,1,36,2.47,1.43,1.43,0,0,0,33.18,3a1.34,1.34,0,0,0,.17.65A1.32,1.32,0,0,1,33.24,3.12Z" transform="translate(-1.31 -1.51)"/><path class="cls-1" d="M42.65,3.13A1.55,1.55,0,1,1,41.1,1.6,1.54,1.54,0,0,1,42.65,3.13Z" transform="translate(-1.31 -1.51)"/><circle class="cls-1" cx="39.69" cy="1.5" r="1.43"/><path class="cls-1" d="M39.62,3.13a1.43,1.43,0,0,1,2.7-.65A1.43,1.43,0,0,0,39.56,3a1.39,1.39,0,0,0,.16.65A1.51,1.51,0,0,1,39.62,3.13Z" transform="translate(-1.31 -1.51)"/><ellipse class="cls-1" cx="46.17" cy="1.64" rx="1.55" ry="1.54"/><path class="cls-1" d="M48.8,3a1.44,1.44,0,1,1-1.43-1.44A1.43,1.43,0,0,1,48.8,3Z" transform="translate(-1.31 -1.51)"/><path class="cls-1" d="M46,3.14a1.43,1.43,0,0,1,2.71-.65A1.43,1.43,0,0,0,45.93,3a1.4,1.4,0,0,0,.17.65A1.32,1.32,0,0,1,46,3.14Z" transform="translate(-1.31 -1.51)"/><path class="cls-1" d="M55.4,3.15a1.55,1.55,0,1,1-1.54-1.53A1.54,1.54,0,0,1,55.4,3.15Z" transform="translate(-1.31 -1.51)"/><path class="cls-1" d="M55.18,3A1.44,1.44,0,1,1,53.74,1.6,1.43,1.43,0,0,1,55.18,3Z" transform="translate(-1.31 -1.51)"/><path class="cls-1" d="M52.37,3.15a1.43,1.43,0,0,1,2.7-.65A1.43,1.43,0,0,0,52.31,3a1.46,1.46,0,0,0,.16.66A1.62,1.62,0,0,1,52.37,3.15Z" transform="translate(-1.31 -1.51)"/><ellipse class="cls-1" cx="58.93" cy="1.66" rx="1.55" ry="1.54"/><circle class="cls-1" cx="58.81" cy="1.54" r="1.43"/><path class="cls-1" d="M58.74,3.17a1.43,1.43,0,0,1,2.71-.66A1.44,1.44,0,0,0,58.68,3a1.47,1.47,0,0,0,.17.66A1.4,1.4,0,0,1,58.74,3.17Z" transform="translate(-1.31 -1.51)"/><path class="cls-1" d="M68.15,3.18a1.55,1.55,0,1,1-1.54-1.54A1.53,1.53,0,0,1,68.15,3.18Z" transform="translate(-1.31 -1.51)"/><path class="cls-1" d="M67.93,3.05a1.44,1.44,0,1,1-1.44-1.43A1.44,1.44,0,0,1,67.93,3.05Z" transform="translate(-1.31 -1.51)"/><path class="cls-1" d="M65.12,3.18a1.43,1.43,0,0,1,1.43-1.44,1.42,1.42,0,0,1,1.27.78,1.43,1.43,0,0,0-2.76.53,1.46,1.46,0,0,0,.16.66A1.61,1.61,0,0,1,65.12,3.18Z" transform="translate(-1.31 -1.51)"/><path class="cls-1" d="M74.53,3.19A1.55,1.55,0,1,1,73,1.65,1.53,1.53,0,0,1,74.53,3.19Z" transform="translate(-1.31 -1.51)"/><path class="cls-1" d="M74.3,3.06a1.44,1.44,0,1,1-1.43-1.43A1.43,1.43,0,0,1,74.3,3.06Z" transform="translate(-1.31 -1.51)"/><path class="cls-1" d="M71.49,3.19a1.43,1.43,0,0,1,2.71-.66,1.44,1.44,0,0,0-2.77.53,1.47,1.47,0,0,0,.17.66A1.36,1.36,0,0,1,71.49,3.19Z" transform="translate(-1.31 -1.51)"/><path class="cls-1" d="M80.9,3.2a1.55,1.55,0,1,1-1.54-1.54A1.54,1.54,0,0,1,80.9,3.2Z" transform="translate(-1.31 -1.51)"/><path class="cls-1" d="M80.68,3.07a1.44,1.44,0,1,1-1.44-1.43A1.43,1.43,0,0,1,80.68,3.07Z" transform="translate(-1.31 -1.51)"/><path class="cls-1" d="M77.87,3.2A1.44,1.44,0,0,1,79.3,1.76a1.42,1.42,0,0,1,1.27.78,1.43,1.43,0,0,0-2.76.53,1.46,1.46,0,0,0,.16.66A1.51,1.51,0,0,1,77.87,3.2Z" transform="translate(-1.31 -1.51)"/><ellipse class="cls-1" cx="84.43" cy="1.7" rx="1.55" ry="1.54"/><path class="cls-1" d="M87.05,3.09a1.44,1.44,0,1,1-1.43-1.44A1.43,1.43,0,0,1,87.05,3.09Z" transform="translate(-1.31 -1.51)"/><path class="cls-1" d="M84.24,3.21a1.44,1.44,0,0,1,1.44-1.43A1.42,1.42,0,0,1,87,2.56a1.43,1.43,0,0,0-2.77.53,1.46,1.46,0,0,0,.17.65A1.32,1.32,0,0,1,84.24,3.21Z" transform="translate(-1.31 -1.51)"/><path class="cls-1" d="M93.65,3.22a1.55,1.55,0,1,1-1.54-1.54A1.54,1.54,0,0,1,93.65,3.22Z" transform="translate(-1.31 -1.51)"/><path class="cls-1" d="M93.43,3.1A1.44,1.44,0,1,1,92,1.66,1.43,1.43,0,0,1,93.43,3.1Z" transform="translate(-1.31 -1.51)"/><path class="cls-1" d="M90.62,3.22a1.43,1.43,0,0,1,2.7-.65,1.43,1.43,0,1,0-2.6,1.18A1.51,1.51,0,0,1,90.62,3.22Z" transform="translate(-1.31 -1.51)"/><path class="cls-1" d="M100,3.23A1.55,1.55,0,1,1,98.48,1.7,1.54,1.54,0,0,1,100,3.23Z" transform="translate(-1.31 -1.51)"/><circle class="cls-1" cx="97.06" cy="1.6" r="1.43"/><path class="cls-1" d="M97,3.23a1.43,1.43,0,0,1,2.71-.65,1.43,1.43,0,0,0-2.77.53,1.4,1.4,0,0,0,.17.65A1.32,1.32,0,0,1,97,3.23Z" transform="translate(-1.31 -1.51)"/><ellipse class="cls-1" cx="103.55" cy="1.74" rx="1.55" ry="1.54"/><path class="cls-1" d="M106.18,3.12a1.44,1.44,0,1,1-1.44-1.44A1.43,1.43,0,0,1,106.18,3.12Z" transform="translate(-1.31 -1.51)"/><path class="cls-1" d="M103.37,3.24a1.43,1.43,0,0,1,2.71-.65,1.45,1.45,0,0,0-1.34-.91,1.44,1.44,0,0,0-1.43,1.44,1.39,1.39,0,0,0,.16.65A1.51,1.51,0,0,1,103.37,3.24Z" transform="translate(-1.31 -1.51)"/><path class="cls-1" d="M112.78,3.26a1.55,1.55,0,1,1-1.55-1.54A1.54,1.54,0,0,1,112.78,3.26Z" transform="translate(-1.31 -1.51)"/><path class="cls-1" d="M112.55,3.13a1.44,1.44,0,1,1-1.43-1.43A1.44,1.44,0,0,1,112.55,3.13Z" transform="translate(-1.31 -1.51)"/><path class="cls-1" d="M109.75,3.26a1.43,1.43,0,0,1,2.7-.66,1.44,1.44,0,0,0-2.77.53,1.47,1.47,0,0,0,.17.66A1.39,1.39,0,0,1,109.75,3.26Z" transform="translate(-1.31 -1.51)"/><ellipse class="cls-1" cx="116.3" cy="1.76" rx="1.55" ry="1.54"/><path class="cls-1" d="M118.93,3.14a1.44,1.44,0,1,1-1.44-1.43A1.44,1.44,0,0,1,118.93,3.14Z" transform="translate(-1.31 -1.51)"/><path class="cls-1" d="M116.12,3.27a1.43,1.43,0,0,1,2.71-.66,1.44,1.44,0,0,0-1.34-.9,1.43,1.43,0,0,0-1.43,1.43,1.46,1.46,0,0,0,.16.66A1.61,1.61,0,0,1,116.12,3.27Z" transform="translate(-1.31 -1.51)"/><path class="cls-1" d="M125.53,3.28A1.55,1.55,0,1,1,124,1.74,1.53,1.53,0,0,1,125.53,3.28Z" transform="translate(-1.31 -1.51)"/><path class="cls-1" d="M125.31,3.15a1.44,1.44,0,1,1-1.44-1.43A1.44,1.44,0,0,1,125.31,3.15Z" transform="translate(-1.31 -1.51)"/><path class="cls-1" d="M122.5,3.28a1.43,1.43,0,0,1,2.7-.66,1.44,1.44,0,0,0-2.77.53,1.47,1.47,0,0,0,.17.66A1.35,1.35,0,0,1,122.5,3.28Z" transform="translate(-1.31 -1.51)"/><ellipse class="cls-1" cx="129.05" cy="1.78" rx="1.55" ry="1.54"/><path class="cls-1" d="M131.68,3.16a1.44,1.44,0,1,1-1.43-1.43A1.43,1.43,0,0,1,131.68,3.16Z" transform="translate(-1.31 -1.51)"/><path class="cls-1" d="M128.87,3.29a1.43,1.43,0,0,1,2.71-.66,1.44,1.44,0,0,0-2.77.53,1.35,1.35,0,0,0,.17.66A1.32,1.32,0,0,1,128.87,3.29Z" transform="translate(-1.31 -1.51)"/><ellipse class="cls-1" cx="135.43" cy="1.79" rx="1.55" ry="1.54"/><path class="cls-1" d="M138.06,3.18a1.44,1.44,0,1,1-1.44-1.44A1.44,1.44,0,0,1,138.06,3.18Z" transform="translate(-1.31 -1.51)"/><path class="cls-1" d="M135.25,3.3a1.43,1.43,0,0,1,2.7-.66,1.44,1.44,0,0,0-2.77.54,1.46,1.46,0,0,0,.17.65A1.32,1.32,0,0,1,135.25,3.3Z" transform="translate(-1.31 -1.51)"/></svg>