<svg xmlns="http://www.w3.org/2000/svg" xmlns:xlink="http://www.w3.org/1999/xlink" viewBox="0 0 165.78 2.86"><defs><style>.cls-1{isolation:isolate;}.cls-2{fill:#fff;mix-blend-mode:soft-light;}.cls-3{fill:url(#radial-gradient);}.cls-4{fill:#ededed;mix-blend-mode:multiply;}.cls-5{fill:url(#radial-gradient-2);}.cls-6{fill:url(#radial-gradient-3);}.cls-7{fill:url(#radial-gradient-4);}.cls-8{fill:url(#radial-gradient-5);}.cls-9{fill:url(#radial-gradient-6);}.cls-10{fill:url(#radial-gradient-7);}.cls-11{fill:url(#radial-gradient-8);}.cls-12{fill:url(#radial-gradient-9);}.cls-13{fill:url(#radial-gradient-10);}.cls-14{fill:url(#radial-gradient-11);}.cls-15{fill:url(#radial-gradient-12);}.cls-16{fill:url(#radial-gradient-13);}.cls-17{fill:url(#radial-gradient-14);}.cls-18{fill:url(#radial-gradient-15);}.cls-19{fill:url(#radial-gradient-16);}.cls-20{fill:url(#radial-gradient-17);}.cls-21{fill:url(#radial-gradient-18);}.cls-22{fill:url(#radial-gradient-19);}.cls-23{fill:url(#radial-gradient-20);}.cls-24{fill:url(#radial-gradient-21);}.cls-25{fill:url(#radial-gradient-22);}.cls-26{fill:url(#radial-gradient-23);}.cls-27{fill:url(#radial-gradient-24);}.cls-28{fill:url(#radial-gradient-25);}.cls-29{fill:url(#radial-gradient-26);}.cls-30{fill:url(#radial-gradient-27);}.cls-31{fill:url(#radial-gradient-28);}.cls-32{fill:url(#radial-gradient-29);}.cls-33{fill:url(#radial-gradient-30);}.cls-34{fill:url(#radial-gradient-31);}</style><radialGradient id="radial-gradient" cx="2.81" cy="2.48" r="1.2" gradientTransform="translate(0.38 0.13)" gradientUnits="userSpaceOnUse"><stop offset="0" stop-color="#636363"/><stop offset="0.11" stop-color="#626262"/><stop offset="1" stop-color="#5e5c5d"/></radialGradient><radialGradient id="radial-gradient-2" cx="8.24" cy="2.49" r="1.2" xlink:href="#radial-gradient"/><radialGradient id="radial-gradient-3" cx="13.68" cy="2.5" r="1.2" xlink:href="#radial-gradient"/><radialGradient id="radial-gradient-4" cx="19.11" cy="2.51" r="1.2" xlink:href="#radial-gradient"/><radialGradient id="radial-gradient-5" cx="24.54" cy="2.52" r="1.2" gradientTransform="translate(-1.62 -1.29)" xlink:href="#radial-gradient"/><radialGradient id="radial-gradient-6" cx="29.97" cy="2.53" r="1.2" xlink:href="#radial-gradient"/><radialGradient id="radial-gradient-7" cx="35.4" cy="2.54" r="1.2" gradientTransform="translate(-1.62 -1.29)" xlink:href="#radial-gradient"/><radialGradient id="radial-gradient-8" cx="40.84" cy="2.55" r="1.2" xlink:href="#radial-gradient"/><radialGradient id="radial-gradient-9" cx="46.27" cy="2.56" r="1.2" xlink:href="#radial-gradient"/><radialGradient id="radial-gradient-10" cx="51.7" cy="2.57" r="1.2" gradientTransform="translate(-1.62 -1.29)" xlink:href="#radial-gradient"/><radialGradient id="radial-gradient-11" cx="57.13" cy="2.58" r="1.2" xlink:href="#radial-gradient"/><radialGradient id="radial-gradient-12" cx="62.56" cy="2.59" r="1.2" xlink:href="#radial-gradient"/><radialGradient id="radial-gradient-13" cx="67.99" cy="2.6" r="1.2" xlink:href="#radial-gradient"/><radialGradient id="radial-gradient-14" cx="73.43" cy="2.61" r="1.2" xlink:href="#radial-gradient"/><radialGradient id="radial-gradient-15" cx="78.86" cy="2.62" r="1.2" xlink:href="#radial-gradient"/><radialGradient id="radial-gradient-16" cx="84.29" cy="2.62" r="1.2" gradientTransform="translate(-1.62 -1.29)" xlink:href="#radial-gradient"/><radialGradient id="radial-gradient-17" cx="89.72" cy="2.63" r="1.2" xlink:href="#radial-gradient"/><radialGradient id="radial-gradient-18" cx="95.15" cy="2.64" r="1.2" xlink:href="#radial-gradient"/><radialGradient id="radial-gradient-19" cx="100.58" cy="2.65" r="1.2" xlink:href="#radial-gradient"/><radialGradient id="radial-gradient-20" cx="106.02" cy="2.66" r="1.2" xlink:href="#radial-gradient"/><radialGradient id="radial-gradient-21" cx="111.45" cy="2.67" r="1.2" xlink:href="#radial-gradient"/><radialGradient id="radial-gradient-22" cx="116.88" cy="2.68" r="1.2" xlink:href="#radial-gradient"/><radialGradient id="radial-gradient-23" cx="122.31" cy="2.69" r="1.2" xlink:href="#radial-gradient"/><radialGradient id="radial-gradient-24" cx="127.74" cy="2.7" r="1.2" xlink:href="#radial-gradient"/><radialGradient id="radial-gradient-25" cx="133.18" cy="2.71" r="1.2" xlink:href="#radial-gradient"/><radialGradient id="radial-gradient-26" cx="138.61" cy="2.72" r="1.2" gradientTransform="translate(-1.62 -1.29)" xlink:href="#radial-gradient"/><radialGradient id="radial-gradient-27" cx="144.04" cy="2.73" r="1.2" xlink:href="#radial-gradient"/><radialGradient id="radial-gradient-28" cx="149.47" cy="2.74" r="1.2" xlink:href="#radial-gradient"/><radialGradient id="radial-gradient-29" cx="154.9" cy="2.75" r="1.2" xlink:href="#radial-gradient"/><radialGradient id="radial-gradient-30" cx="160.33" cy="2.76" r="1.2" xlink:href="#radial-gradient"/><radialGradient id="radial-gradient-31" cx="165.77" cy="2.76" r="1.2" xlink:href="#radial-gradient"/></defs><title>note</title><g class="cls-1"><g id="Layer_1" data-name="Layer 1"><ellipse class="cls-2" cx="1.29" cy="1.3" rx="1.29" ry="1.28"/><path class="cls-3" d="M4.4,2.62a1.2,1.2,0,1,1-1.2-1.2A1.19,1.19,0,0,1,4.4,2.62Z" transform="translate(-2 -1.42)"/><path class="cls-4" d="M2.05,2.72a1.2,1.2,0,0,1,2.26-.55,1.19,1.19,0,1,0-2.17,1A1.23,1.23,0,0,1,2.05,2.72Z" transform="translate(-2 -1.42)"/><path class="cls-2" d="M10,2.73a1.3,1.3,0,1,1-1.3-1.28A1.29,1.29,0,0,1,10,2.73Z" transform="translate(-2 -1.42)"/><path class="cls-5" d="M9.84,2.63a1.2,1.2,0,1,1-1.2-1.2A1.19,1.19,0,0,1,9.84,2.63Z" transform="translate(-2 -1.42)"/><path class="cls-4" d="M7.49,2.73a1.2,1.2,0,0,1,2.26-.55,1.2,1.2,0,0,0-2.31.45,1.24,1.24,0,0,0,.14.54A1.23,1.23,0,0,1,7.49,2.73Z" transform="translate(-2 -1.42)"/><ellipse class="cls-2" cx="12.17" cy="1.32" rx="1.29" ry="1.28"/><path class="cls-6" d="M15.28,2.64a1.2,1.2,0,1,1-1.2-1.2A1.19,1.19,0,0,1,15.28,2.64Z" transform="translate(-2 -1.42)"/><path class="cls-4" d="M12.93,2.74a1.2,1.2,0,0,1,2.26-.55,1.2,1.2,0,0,0-2.31.45,1.24,1.24,0,0,0,.14.54A1.23,1.23,0,0,1,12.93,2.74Z" transform="translate(-2 -1.42)"/><ellipse class="cls-2" cx="17.61" cy="1.33" rx="1.29" ry="1.28"/><path class="cls-7" d="M20.72,2.65a1.2,1.2,0,1,1-1.2-1.2A1.19,1.19,0,0,1,20.72,2.65Z" transform="translate(-2 -1.42)"/><path class="cls-4" d="M18.37,2.75a1.2,1.2,0,0,1,2.26-.55,1.2,1.2,0,0,0-2.31.45,1.24,1.24,0,0,0,.14.54A1.28,1.28,0,0,1,18.37,2.75Z" transform="translate(-2 -1.42)"/><ellipse class="cls-2" cx="23.05" cy="1.34" rx="1.29" ry="1.28"/><circle class="cls-8" cx="22.96" cy="1.23" r="1.2"/><path class="cls-4" d="M23.81,2.76a1.2,1.2,0,0,1,2.26-.55,1.2,1.2,0,0,0-2.31.44,1.24,1.24,0,0,0,.14.55A1.28,1.28,0,0,1,23.81,2.76Z" transform="translate(-2 -1.42)"/><path class="cls-2" d="M31.79,2.77a1.3,1.3,0,1,1-1.3-1.28A1.29,1.29,0,0,1,31.79,2.77Z" transform="translate(-2 -1.42)"/><path class="cls-9" d="M31.6,2.66a1.2,1.2,0,1,1-1.2-1.19A1.2,1.2,0,0,1,31.6,2.66Z" transform="translate(-2 -1.42)"/><path class="cls-4" d="M29.25,2.77a1.2,1.2,0,0,1,2.26-.55,1.2,1.2,0,0,0-2.31.44,1.24,1.24,0,0,0,.14.55A1.33,1.33,0,0,1,29.25,2.77Z" transform="translate(-2 -1.42)"/><path class="cls-2" d="M37.23,2.78a1.3,1.3,0,1,1-1.3-1.29A1.29,1.29,0,0,1,37.23,2.78Z" transform="translate(-2 -1.42)"/><circle class="cls-10" cx="33.84" cy="1.25" r="1.2"/><path class="cls-4" d="M34.69,2.78A1.2,1.2,0,0,1,37,2.23a1.2,1.2,0,0,0-2.31.44,1.24,1.24,0,0,0,.14.55A1.33,1.33,0,0,1,34.69,2.78Z" transform="translate(-2 -1.42)"/><ellipse class="cls-2" cx="39.37" cy="1.37" rx="1.29" ry="1.28"/><path class="cls-11" d="M42.48,2.68a1.2,1.2,0,1,1-1.2-1.19A1.2,1.2,0,0,1,42.48,2.68Z" transform="translate(-2 -1.42)"/><path class="cls-4" d="M40.13,2.79a1.2,1.2,0,0,1,1.2-1.2,1.19,1.19,0,0,1,1.06.65,1.2,1.2,0,0,0-2.31.44,1.28,1.28,0,0,0,.14.55A1.33,1.33,0,0,1,40.13,2.79Z" transform="translate(-2 -1.42)"/><path class="cls-2" d="M48.11,2.8a1.3,1.3,0,1,1-1.3-1.29A1.29,1.29,0,0,1,48.11,2.8Z" transform="translate(-2 -1.42)"/><path class="cls-12" d="M47.92,2.69a1.2,1.2,0,1,1-1.2-1.2A1.2,1.2,0,0,1,47.92,2.69Z" transform="translate(-2 -1.42)"/><path class="cls-4" d="M45.57,2.8a1.2,1.2,0,0,1,2.26-.55,1.2,1.2,0,0,0-2.31.44,1.28,1.28,0,0,0,.14.55A1.33,1.33,0,0,1,45.57,2.8Z" transform="translate(-2 -1.42)"/><ellipse class="cls-2" cx="50.25" cy="1.39" rx="1.29" ry="1.28"/><circle class="cls-13" cx="50.16" cy="1.28" r="1.2"/><path class="cls-4" d="M51,2.8a1.2,1.2,0,0,1,2.26-.54A1.2,1.2,0,0,0,51,2.7a1.28,1.28,0,0,0,.14.55A1.34,1.34,0,0,1,51,2.8Z" transform="translate(-2 -1.42)"/><path class="cls-2" d="M59,2.81a1.3,1.3,0,1,1-1.3-1.28A1.3,1.3,0,0,1,59,2.81Z" transform="translate(-2 -1.42)"/><path class="cls-14" d="M58.8,2.71a1.2,1.2,0,1,1-1.2-1.2A1.2,1.2,0,0,1,58.8,2.71Z" transform="translate(-2 -1.42)"/><path class="cls-4" d="M56.45,2.81a1.2,1.2,0,0,1,2.26-.54,1.2,1.2,0,0,0-2.31.44,1.15,1.15,0,0,0,.14.55A1.34,1.34,0,0,1,56.45,2.81Z" transform="translate(-2 -1.42)"/><path class="cls-2" d="M64.43,2.82a1.3,1.3,0,1,1-1.3-1.28A1.3,1.3,0,0,1,64.43,2.82Z" transform="translate(-2 -1.42)"/><path class="cls-15" d="M64.24,2.72A1.2,1.2,0,1,1,63,1.52,1.2,1.2,0,0,1,64.24,2.72Z" transform="translate(-2 -1.42)"/><path class="cls-4" d="M61.89,2.82a1.2,1.2,0,0,1,2.26-.54,1.2,1.2,0,0,0-2.31.44,1.15,1.15,0,0,0,.14.55A1.34,1.34,0,0,1,61.89,2.82Z" transform="translate(-2 -1.42)"/><path class="cls-2" d="M69.87,2.83a1.3,1.3,0,1,1-1.3-1.28A1.3,1.3,0,0,1,69.87,2.83Z" transform="translate(-2 -1.42)"/><path class="cls-16" d="M69.68,2.73a1.2,1.2,0,1,1-1.2-1.2A1.2,1.2,0,0,1,69.68,2.73Z" transform="translate(-2 -1.42)"/><path class="cls-4" d="M67.33,2.83a1.2,1.2,0,0,1,2.26-.54,1.2,1.2,0,0,0-2.31.44,1.15,1.15,0,0,0,.14.55A1.34,1.34,0,0,1,67.33,2.83Z" transform="translate(-2 -1.42)"/><ellipse class="cls-2" cx="72.01" cy="1.42" rx="1.29" ry="1.28"/><path class="cls-17" d="M75.12,2.74a1.2,1.2,0,1,1-1.2-1.2A1.2,1.2,0,0,1,75.12,2.74Z" transform="translate(-2 -1.42)"/><path class="cls-4" d="M72.77,2.84A1.2,1.2,0,0,1,75,2.3a1.2,1.2,0,0,0-2.31.44,1.15,1.15,0,0,0,.14.55A1.34,1.34,0,0,1,72.77,2.84Z" transform="translate(-2 -1.42)"/><path class="cls-2" d="M80.75,2.85a1.3,1.3,0,1,1-1.3-1.28A1.29,1.29,0,0,1,80.75,2.85Z" transform="translate(-2 -1.42)"/><path class="cls-18" d="M80.56,2.75a1.2,1.2,0,1,1-1.2-1.2A1.2,1.2,0,0,1,80.56,2.75Z" transform="translate(-2 -1.42)"/><path class="cls-4" d="M78.21,2.85a1.2,1.2,0,0,1,2.26-.55,1.2,1.2,0,0,0-2.31.45,1.09,1.09,0,0,0,.14.54A1.23,1.23,0,0,1,78.21,2.85Z" transform="translate(-2 -1.42)"/><path class="cls-2" d="M86.19,2.86a1.3,1.3,0,1,1-1.3-1.28A1.29,1.29,0,0,1,86.19,2.86Z" transform="translate(-2 -1.42)"/><circle class="cls-19" cx="82.8" cy="1.34" r="1.2"/><path class="cls-4" d="M83.65,2.86a1.2,1.2,0,0,1,2.26-.55,1.2,1.2,0,0,0-2.31.45,1.09,1.09,0,0,0,.14.54A1.23,1.23,0,0,1,83.65,2.86Z" transform="translate(-2 -1.42)"/><ellipse class="cls-2" cx="88.33" cy="1.45" rx="1.29" ry="1.28"/><path class="cls-20" d="M91.44,2.77a1.2,1.2,0,1,1-1.2-1.2A1.19,1.19,0,0,1,91.44,2.77Z" transform="translate(-2 -1.42)"/><path class="cls-4" d="M89.09,2.87a1.2,1.2,0,0,1,2.26-.55A1.2,1.2,0,0,0,89,2.77a1.11,1.11,0,0,0,.14.54A1.23,1.23,0,0,1,89.09,2.87Z" transform="translate(-2 -1.42)"/><path class="cls-2" d="M97.07,2.88a1.3,1.3,0,1,1-1.3-1.28A1.29,1.29,0,0,1,97.07,2.88Z" transform="translate(-2 -1.42)"/><path class="cls-21" d="M96.88,2.78a1.2,1.2,0,1,1-1.2-1.2A1.19,1.19,0,0,1,96.88,2.78Z" transform="translate(-2 -1.42)"/><path class="cls-4" d="M94.53,2.88a1.2,1.2,0,0,1,2.26-.55,1.2,1.2,0,0,0-2.31.45,1.11,1.11,0,0,0,.14.54A1,1,0,0,1,94.53,2.88Z" transform="translate(-2 -1.42)"/><ellipse class="cls-2" cx="99.21" cy="1.47" rx="1.29" ry="1.28"/><path class="cls-22" d="M102.32,2.79a1.2,1.2,0,1,1-1.2-1.2A1.19,1.19,0,0,1,102.32,2.79Z" transform="translate(-2 -1.42)"/><path class="cls-4" d="M100,2.89a1.2,1.2,0,0,1,2.26-.55,1.2,1.2,0,0,0-2.31.45,1.11,1.11,0,0,0,.14.54A1.08,1.08,0,0,1,100,2.89Z" transform="translate(-2 -1.42)"/><path class="cls-2" d="M108,2.9a1.3,1.3,0,1,1-1.3-1.28A1.29,1.29,0,0,1,108,2.9Z" transform="translate(-2 -1.42)"/><path class="cls-23" d="M107.76,2.79a1.2,1.2,0,1,1-1.2-1.19A1.2,1.2,0,0,1,107.76,2.79Z" transform="translate(-2 -1.42)"/><path class="cls-4" d="M105.41,2.9a1.2,1.2,0,0,1,2.26-.55,1.2,1.2,0,0,0-2.31.44,1.12,1.12,0,0,0,.14.55A1.08,1.08,0,0,1,105.41,2.9Z" transform="translate(-2 -1.42)"/><ellipse class="cls-2" cx="110.09" cy="1.49" rx="1.29" ry="1.28"/><path class="cls-24" d="M113.2,2.8A1.2,1.2,0,1,1,112,1.61,1.2,1.2,0,0,1,113.2,2.8Z" transform="translate(-2 -1.42)"/><path class="cls-4" d="M110.85,2.91a1.2,1.2,0,0,1,2.26-.55,1.2,1.2,0,0,0-2.31.44,1.12,1.12,0,0,0,.14.55A1.12,1.12,0,0,1,110.85,2.91Z" transform="translate(-2 -1.42)"/><ellipse class="cls-2" cx="115.53" cy="1.5" rx="1.29" ry="1.28"/><path class="cls-25" d="M118.64,2.81a1.2,1.2,0,1,1-1.2-1.19A1.2,1.2,0,0,1,118.64,2.81Z" transform="translate(-2 -1.42)"/><path class="cls-4" d="M116.29,2.92a1.2,1.2,0,0,1,2.26-.55,1.2,1.2,0,0,0-2.31.44,1.12,1.12,0,0,0,.14.55A1.12,1.12,0,0,1,116.29,2.92Z" transform="translate(-2 -1.42)"/><path class="cls-2" d="M124.27,2.93A1.3,1.3,0,1,1,123,1.64,1.29,1.29,0,0,1,124.27,2.93Z" transform="translate(-2 -1.42)"/><path class="cls-26" d="M124.08,2.82a1.2,1.2,0,1,1-1.2-1.19A1.2,1.2,0,0,1,124.08,2.82Z" transform="translate(-2 -1.42)"/><path class="cls-4" d="M121.73,2.93A1.2,1.2,0,0,1,124,2.38a1.2,1.2,0,0,0-2.31.44,1.12,1.12,0,0,0,.14.55A1.12,1.12,0,0,1,121.73,2.93Z" transform="translate(-2 -1.42)"/><ellipse class="cls-2" cx="126.41" cy="1.52" rx="1.29" ry="1.28"/><path class="cls-27" d="M129.52,2.83a1.2,1.2,0,1,1-1.2-1.19A1.2,1.2,0,0,1,129.52,2.83Z" transform="translate(-2 -1.42)"/><path class="cls-4" d="M127.17,2.94a1.2,1.2,0,0,1,2.26-.55,1.2,1.2,0,0,0-2.31.44,1.15,1.15,0,0,0,.14.55A1.12,1.12,0,0,1,127.17,2.94Z" transform="translate(-2 -1.42)"/><path class="cls-2" d="M135.15,3a1.3,1.3,0,1,1-1.3-1.29A1.29,1.29,0,0,1,135.15,3Z" transform="translate(-2 -1.42)"/><path class="cls-28" d="M135,2.84a1.2,1.2,0,1,1-1.2-1.2A1.2,1.2,0,0,1,135,2.84Z" transform="translate(-2 -1.42)"/><path class="cls-4" d="M132.61,3a1.2,1.2,0,0,1,2.26-.55,1.2,1.2,0,0,0-2.31.44,1.15,1.15,0,0,0,.14.55A1.12,1.12,0,0,1,132.61,3Z" transform="translate(-2 -1.42)"/><ellipse class="cls-2" cx="137.29" cy="1.53" rx="1.29" ry="1.28"/><circle class="cls-29" cx="137.2" cy="1.43" r="1.2"/><path class="cls-4" d="M138.05,3a1.2,1.2,0,0,1,2.26-.54,1.2,1.2,0,0,0-2.31.44,1.15,1.15,0,0,0,.14.55A1.13,1.13,0,0,1,138.05,3Z" transform="translate(-2 -1.42)"/><path class="cls-2" d="M146,3a1.3,1.3,0,1,1-1.3-1.28A1.3,1.3,0,0,1,146,3Z" transform="translate(-2 -1.42)"/><path class="cls-30" d="M145.84,2.86a1.2,1.2,0,1,1-1.2-1.2A1.2,1.2,0,0,1,145.84,2.86Z" transform="translate(-2 -1.42)"/><path class="cls-4" d="M143.49,3a1.2,1.2,0,0,1,2.26-.54,1.2,1.2,0,0,0-2.31.44,1.15,1.15,0,0,0,.14.55A1.13,1.13,0,0,1,143.49,3Z" transform="translate(-2 -1.42)"/><path class="cls-2" d="M151.47,3a1.3,1.3,0,1,1-1.3-1.28A1.3,1.3,0,0,1,151.47,3Z" transform="translate(-2 -1.42)"/><path class="cls-31" d="M151.28,2.87a1.2,1.2,0,1,1-1.2-1.2A1.2,1.2,0,0,1,151.28,2.87Z" transform="translate(-2 -1.42)"/><path class="cls-4" d="M148.93,3a1.2,1.2,0,0,1,2.26-.54,1.2,1.2,0,0,0-2.31.44,1.15,1.15,0,0,0,.14.55A1.13,1.13,0,0,1,148.93,3Z" transform="translate(-2 -1.42)"/><ellipse class="cls-2" cx="153.61" cy="1.56" rx="1.29" ry="1.28"/><path class="cls-32" d="M156.72,2.88a1.2,1.2,0,1,1-1.2-1.2A1.2,1.2,0,0,1,156.72,2.88Z" transform="translate(-2 -1.42)"/><path class="cls-4" d="M154.37,3a1.2,1.2,0,0,1,2.26-.54,1.2,1.2,0,0,0-2.31.44,1.15,1.15,0,0,0,.14.55A1.13,1.13,0,0,1,154.37,3Z" transform="translate(-2 -1.42)"/><ellipse class="cls-2" cx="159.05" cy="1.57" rx="1.29" ry="1.28"/><path class="cls-33" d="M162.16,2.89a1.2,1.2,0,1,1-1.2-1.2A1.2,1.2,0,0,1,162.16,2.89Z" transform="translate(-2 -1.42)"/><path class="cls-4" d="M159.81,3a1.19,1.19,0,0,1,2.26-.54,1.2,1.2,0,0,0-2.31.44,1.15,1.15,0,0,0,.14.55A1.13,1.13,0,0,1,159.81,3Z" transform="translate(-2 -1.42)"/><ellipse class="cls-2" cx="164.49" cy="1.58" rx="1.29" ry="1.28"/><path class="cls-34" d="M167.6,2.9a1.2,1.2,0,1,1-1.2-1.2A1.19,1.19,0,0,1,167.6,2.9Z" transform="translate(-2 -1.42)"/><path class="cls-4" d="M165.25,3a1.2,1.2,0,0,1,2.26-.55,1.2,1.2,0,0,0-2.31.45,1.09,1.09,0,0,0,.14.54A1,1,0,0,1,165.25,3Z" transform="translate(-2 -1.42)"/></g></g></svg>